<svg width="24" height="25" viewBox="0 0 24 25" fill="none" xmlns="http://www.w3.org/2000/svg">
<path d="M20 3.5H19V16.5H20C20.5304 16.5 21.0391 16.2893 21.4142 15.9142C21.7893 15.5391 22 15.0304 22 14.5V5.5C22 4.96957 21.7893 4.46086 21.4142 4.08579C21.0391 3.71071 20.5304 3.5 20 3.5ZM4 16.5H11L9.878 19.868C9.77789 20.1686 9.75061 20.4887 9.79843 20.8018C9.84624 21.115 9.96778 21.4124 10.153 21.6694C10.3383 21.9264 10.5819 22.1358 10.8639 22.2802C11.1459 22.4246 11.4582 22.4999 11.775 22.5H12L17 17.062V3.5H6L2.063 12.149L2 12.442V14.5C2 15.0304 2.21071 15.5391 2.58579 15.9142C2.96086 16.2893 3.46957 16.5 4 16.5Z" fill="white"/>
</svg>
