<svg width="33" height="32" viewBox="0 0 33 32" fill="none" xmlns="http://www.w3.org/2000/svg">
<path d="M20.8202 16C20.8202 13.6 18.9002 11.68 16.5002 11.68C14.1002 11.68 12.1802 13.6 12.1802 16C12.1802 18.4 14.1002 20.32 16.5002 20.32C18.9002 20.32 20.8202 18.4 20.8202 16ZM23.0602 16C23.0602 19.68 20.1802 22.5599 16.5002 22.5599C12.8202 22.5599 9.9402 19.68 9.9402 16C9.9402 12.32 12.8202 9.43995 16.5002 9.43995C20.1802 9.43995 23.0602 12.32 23.0602 16ZM24.8202 9.11995C24.8202 10.08 24.1802 10.72 23.2202 10.72C22.2602 10.72 21.6202 10.08 21.6202 9.11995C21.6202 8.15995 22.2602 7.51995 23.2202 7.51995C24.1802 7.51995 24.8202 8.31995 24.8202 9.11995ZM16.5002 5.43995C14.5802 5.43995 10.5802 5.27995 8.9802 5.91995C7.8602 6.39995 6.9002 7.35995 6.58019 8.47995C5.9402 10.08 6.1002 14.08 6.1002 16C6.1002 17.92 5.9402 21.92 6.58019 23.5199C6.9002 24.6399 7.8602 25.6 8.9802 25.92C10.5802 26.56 14.7402 26.4 16.5002 26.4C18.2602 26.4 22.4202 26.56 24.0202 25.92C25.1402 25.44 25.9402 24.6399 26.4202 23.5199C27.0602 21.76 26.9002 17.76 26.9002 16C26.9002 14.24 27.0602 10.08 26.4202 8.47995C26.1002 7.35995 25.1402 6.39995 24.0202 6.07995C22.4202 5.27995 18.4202 5.43995 16.5002 5.43995ZM29.3002 16V21.28C29.3002 23.2 28.6602 25.12 27.2202 26.72C25.7802 28.16 23.8602 28.7999 21.7802 28.7999H11.2202C9.30019 28.7999 7.38019 28.16 5.78019 26.72C4.5002 25.28 3.7002 23.36 3.7002 21.28V10.72C3.7002 8.63995 4.5002 6.71995 5.78019 5.27995C7.38019 3.99995 9.30019 3.19995 11.2202 3.19995H21.7802C23.7002 3.19995 25.6202 3.83995 27.2202 5.27995C28.5002 6.71995 29.3002 8.63995 29.3002 10.72V16Z" fill="black" fill-opacity="0.98"/>
</svg>
