<svg width="16" height="14" viewBox="0 0 16 14" fill="none" xmlns="http://www.w3.org/2000/svg">
<path fill-rule="evenodd" clip-rule="evenodd" d="M8.74666 0.873231L5.05333 4.56656C4.80666 4.81323 4.66666 5.15323 4.66666 5.50656V12.1666C4.66666 12.8999 5.26666 13.4999 6 13.4999H12C12.5333 13.4999 13.0133 13.1799 13.2267 12.6932L15.4 7.6199C15.96 6.2999 14.9933 4.83323 13.56 4.83323H9.79333L10.4267 1.7799C10.4933 1.44656 10.3933 1.10656 10.1533 0.866565C9.76 0.479898 9.13333 0.479898 8.74666 0.873231ZM2 13.4999C2.73333 13.4999 3.33333 12.8999 3.33333 12.1666V6.83323C3.33333 6.0999 2.73333 5.4999 2 5.4999C1.26666 5.4999 0.666664 6.0999 0.666664 6.83323V12.1666C0.666664 12.8999 1.26666 13.4999 2 13.4999Z" fill="#018549"/>
</svg>
