<svg width="33" height="32" viewBox="0 0 33 32" fill="none" xmlns="http://www.w3.org/2000/svg">
<path d="M30.8038 7.13603C30.0198 8.30403 29.0278 9.34403 27.8758 10.176C27.8918 10.416 27.8918 10.672 27.8918 10.928C27.8918 18.688 21.9878 27.632 11.2038 27.632C7.8918 27.632 4.8038 26.656 2.1958 24.992C2.6598 25.04 3.1238 25.072 3.6038 25.072C6.3558 25.072 8.8838 24.128 10.8838 22.56C9.66035 22.5347 8.47535 22.1279 7.49432 21.3965C6.51329 20.665 5.78522 19.6454 5.4118 18.48C5.7638 18.544 6.1318 18.592 6.5158 18.592C7.0438 18.592 7.5718 18.512 8.0518 18.384C6.72476 18.1116 5.53225 17.3899 4.67535 16.3407C3.81845 15.2914 3.34958 13.9787 3.3478 12.624V12.56C4.1478 12.992 5.0438 13.264 6.0038 13.296C5.20028 12.757 4.54197 12.0284 4.08709 11.1744C3.63221 10.3205 3.39478 9.36758 3.3958 8.40003C3.3958 7.32803 3.6838 6.32003 4.1958 5.45603C7.0918 9.00803 11.4118 11.344 16.2918 11.584C16.1958 11.152 16.1318 10.704 16.1318 10.24C16.136 8.68546 16.7566 7.196 17.8573 6.09824C18.9581 5.00049 20.4492 4.38403 22.0038 4.38403C23.6998 4.38403 25.2198 5.08803 26.2918 6.24003C27.6198 5.96803 28.8838 5.48803 30.0198 4.81603C29.5718 6.17603 28.6438 7.32803 27.4278 8.04803C28.5936 7.92061 29.7325 7.61295 30.8038 7.13603Z" fill="black" fill-opacity="0.98"/>
</svg>
