<svg width="33" height="32" viewBox="0 0 33 32" fill="none" xmlns="http://www.w3.org/2000/svg">
<path d="M28.8202 8.47996C28.5002 7.35997 27.7002 6.55997 26.5802 6.23997C23.2202 5.91997 19.8602 5.59997 16.5002 5.75997C13.1402 5.75997 9.78018 5.91997 6.42018 6.23997C5.46018 6.55997 4.50018 7.51996 4.18018 8.47996C3.54215 13.473 3.54215 18.5269 4.18018 23.52C4.50018 24.64 5.30018 25.44 6.42018 25.76C9.78018 26.08 13.1402 26.4 16.5002 26.24C19.8602 26.24 23.2202 26.08 26.5802 25.76C27.7002 25.44 28.5002 24.64 28.8202 23.52C29.4582 18.5269 29.4582 13.473 28.8202 8.47996ZM13.3002 20.8V11.2L21.6202 16L13.3002 20.8Z" fill="black" fill-opacity="0.98"/>
</svg>
