<svg width="12" height="15" viewBox="0 0 12 15" fill="none" xmlns="http://www.w3.org/2000/svg">
<path fill-rule="evenodd" clip-rule="evenodd" d="M10 10.2199C9.49333 10.2199 9.04 10.4199 8.69333 10.7333L3.94 7.96658C3.97333 7.81325 4 7.65992 4 7.49992C4 7.33992 3.97333 7.18659 3.94 7.03325L8.64 4.29325C9 4.62659 9.47333 4.83325 10 4.83325C11.1067 4.83325 12 3.93992 12 2.83325C12 1.72659 11.1067 0.833252 10 0.833252C8.89333 0.833252 8 1.72659 8 2.83325C8 2.99325 8.02667 3.14659 8.06 3.29992L3.36 6.03992C3 5.70658 2.52667 5.49992 2 5.49992C0.893333 5.49992 0 6.39325 0 7.49992C0 8.60658 0.893333 9.49992 2 9.49992C2.52667 9.49992 3 9.29325 3.36 8.95992L8.10667 11.7333C8.07333 11.8733 8.05333 12.0199 8.05333 12.1666C8.05333 13.2399 8.92667 14.1133 10 14.1133C11.0733 14.1133 11.9467 13.2399 11.9467 12.1666C11.9467 11.0933 11.0733 10.2199 10 10.2199Z" fill="#F4F4F4"/>
</svg>
